<svg xmlns="http://www.w3.org/2000/svg" xml:space="preserve" width="655.359" height="655.359" style="shape-rendering:geometricPrecision;text-rendering:geometricPrecision;image-rendering:optimizeQuality;fill-rule:evenodd;clip-rule:evenodd" viewBox="0 0 6.827 6.827"><defs><style>.fil3{fill:#6a6a6a}.fil0{fill:#8c8d8d}.fil1,.fil4,.fil5{fill:#444;fill-rule:nonzero}.fil1,.fil5{fill:#565656}.fil1{fill:#5f5f5f}</style></defs><g id="Layer_x0020_1"><g id="_520367992"><path id="_520369216" class="fil0" d="M5.846 2.07c.002.007.053.138.041.138l-1.403-.054-.02-.137 1.382.053z"/><path id="_520369024" class="fil0" d="m2.375 2.006-.02.131-1.406.054.041-.129 1.383-.053.002-.003z"/><path id="_520369192" class="fil1" d="M4.474 2.126c0 .025-.002.053-.004.085l-.003.059-.004.095a.102.102 0 0 0 .085.106c.223.051.446.084.668.096.223.013.446.006.668-.024l-.013-.102.014.102a.102.102 0 0 0 .078-.146l-.081-.217h-.005l-1.403-.054z"/><path id="_520368784" class="fil1" d="m.945 2.18-.085.226a.102.102 0 0 0 .092.138c.218.023.438.029.66.017.223-.012.447-.043.672-.091a.102.102 0 0 0 .08-.113l-.005-.087c0-.024-.002-.042-.003-.06a1.82 1.82 0 0 1-.003-.085L.945 2.18z"/><path id="_520368832" d="M5.493 1.287a8.557 8.557 0 0 0-2.08-.264 8.56 8.56 0 0 0-2.086.266l.024.099-.025-.1a.102.102 0 0 0-.074.072l-.268.716 1.384-.053c.036-.084.15-.123.472-.178a3.42 3.42 0 0 1 1.146 0c.325.056.437.094.473.179l1.384.053-.272-.725-.095.036.096-.036a.102.102 0 0 0-.079-.065z" style="fill:#6c6c6c;fill-rule:nonzero"/><path id="_520368112" class="fil3" d="M1.611 2.56c-.22.013-.44.007-.66-.016a.102.102 0 0 1-.035-.008 3.59 3.59 0 0 1 .492-.08c.334-.034.656-.028.892.009a4.286 4.286 0 0 1-.689.096z"/><path id="_520368016" class="fil3" d="M5.213 2.566a4.072 4.072 0 0 1-.653-.093.102.102 0 0 1-.035-.012c.143-.018.237-.028.498-.023.26.004.643.04.873.103a3.457 3.457 0 0 1-.683.025z"/></g><g id="_524661152"><path id="_520367944" class="fil4" d="M1.976 2.88h.664c.06 0 .11.05.11.11v.664a.11.11 0 0 1-.11.11h-.664a.11.11 0 0 1-.11-.11V2.99c0-.062.05-.111.11-.111z"/><path id="_520368304" class="fil5" d="M1.976 2.88h.664c.06 0 .11.042.11.093v.56c0 .052-.05.093-.11.093h-.664c-.06 0-.11-.041-.11-.093v-.56c0-.051.05-.093.11-.093z"/><path id="_520368088" class="fil4" d="M3.082 2.88h.663c.061 0 .11.05.11.11v.664a.11.11 0 0 1-.11.11h-.663a.11.11 0 0 1-.11-.11V2.99c0-.062.049-.111.11-.111z"/><path id="_520368160" class="fil5" d="M3.082 2.88h.663c.061 0 .11.042.11.093v.56c0 .052-.049.093-.11.093h-.663c-.061 0-.11-.041-.11-.093v-.56c0-.051.049-.093.11-.093z"/><path id="_520367896" class="fil4" d="M4.187 2.88h.663c.061 0 .11.05.11.11v.664a.11.11 0 0 1-.11.11h-.663a.11.11 0 0 1-.11-.11V2.99c0-.062.05-.111.11-.111z"/><path id="_520368400" class="fil5" d="M4.187 2.88h.663c.061 0 .11.042.11.093v.56c0 .052-.049.093-.11.093h-.663c-.06 0-.11-.041-.11-.093v-.56c0-.051.05-.093.11-.093z"/><g><path id="_520368496" class="fil4" d="M1.976 3.985h.664c.06 0 .11.05.11.11v.664a.11.11 0 0 1-.11.11h-.664a.11.11 0 0 1-.11-.11v-.663c0-.061.05-.11.11-.11z"/><path id="_246463400" class="fil5" d="M1.976 3.985h.664c.06 0 .11.042.11.094v.56c0 .05-.05.093-.11.093h-.664c-.06 0-.11-.042-.11-.094v-.56c0-.05.05-.093.11-.093z"/><path id="_524660744" class="fil4" d="M3.082 3.985h.663c.061 0 .11.05.11.11v.664a.11.11 0 0 1-.11.11h-.663a.11.11 0 0 1-.11-.11v-.663c0-.061.049-.11.11-.11z"/><path id="_524661512" class="fil5" d="M3.082 3.985h.663c.061 0 .11.042.11.094v.56c0 .05-.049.093-.11.093h-.663c-.061 0-.11-.042-.11-.094v-.56c0-.05.049-.093.11-.093z"/><path id="_524661416" class="fil4" d="M4.187 3.985h.663c.061 0 .11.05.11.11v.664a.11.11 0 0 1-.11.11h-.663a.11.11 0 0 1-.11-.11v-.663c0-.061.05-.11.11-.11z"/><path id="_524661728" class="fil5" d="M4.187 3.985h.663c.061 0 .11.042.11.094v.56c0 .05-.049.093-.11.093h-.663c-.06 0-.11-.042-.11-.094v-.56c0-.05.05-.093.11-.093z"/></g><g><path id="_524661656" class="fil4" d="M1.976 5.09h.664c.06 0 .11.05.11.111v.664a.11.11 0 0 1-.11.11h-.664a.11.11 0 0 1-.11-.11V5.2c0-.06.05-.11.11-.11z"/><path id="_524662112" class="fil5" d="M1.976 5.09h.664c.06 0 .11.043.11.094v.56c0 .051-.05.093-.11.093h-.664c-.06 0-.11-.042-.11-.093v-.56c0-.051.05-.093.11-.093z"/><path id="_524661824" class="fil4" d="M3.082 5.09h.663c.061 0 .11.05.11.111v.664a.11.11 0 0 1-.11.11h-.663a.11.11 0 0 1-.11-.11V5.2c0-.06.049-.11.11-.11z"/><path id="_524661560" class="fil5" d="M3.082 5.09h.663c.061 0 .11.043.11.094v.56c0 .051-.049.093-.11.093h-.663c-.061 0-.11-.042-.11-.093v-.56c0-.051.049-.093.11-.093z"/><path id="_524661368" class="fil4" d="M4.187 5.09h.663c.061 0 .11.05.11.111v.664a.11.11 0 0 1-.11.11h-.663a.11.11 0 0 1-.11-.11V5.2c0-.06.05-.11.11-.11z"/><path id="_524661584" class="fil5" d="M4.187 5.09h.663c.061 0 .11.043.11.094v.56c0 .051-.049.093-.11.093h-.663c-.06 0-.11-.042-.11-.093v-.56c0-.051.05-.093.11-.093z"/></g></g></g><path style="fill:none" d="M0 0h6.827v6.827H0z"/></svg>